<?xml version="1.0" standalone="no"?>
<!DOCTYPE svg PUBLIC "-//W3C//DTD SVG 20010904//EN"
 "http://www.w3.org/TR/2001/REC-SVG-20010904/DTD/svg10.dtd">
<svg version="1.0" xmlns="http://www.w3.org/2000/svg"
 width="512.000000pt" height="512.000000pt" viewBox="0 0 512.000000 512.000000"
 preserveAspectRatio="xMidYMid meet">
<metadata>
Created by potrace 1.11, written by Peter Selinger 2001-2013
</metadata>
<g transform="translate(0.000000,512.000000) scale(0.100000,-0.100000)"
fill="#000000" stroke="none">
<path d="M560 3354 c23 -5 765 -104 783 -104 16 0 21 11 32 73 l6 37 -418 -1
c-230 -1 -411 -3 -403 -5z"/>
<path d="M1446 3343 c-8 -29 -296 -1579 -296 -1597 0 -14 22 -16 203 -16 l203
0 63 372 c35 204 67 383 71 397 7 25 7 25 13 -9 3 -19 13 -179 22 -355 8 -176
18 -339 21 -362 l5 -43 149 0 148 0 132 395 c72 217 135 395 139 395 4 0 -12
-170 -35 -377 -24 -208 -43 -386 -43 -395 -1 -17 15 -18 204 -18 204 0 205 0
209 23 3 12 33 319 66 682 34 363 63 661 64 662 1 1 177 -22 393 -51 l391 -52
6 36 c3 19 6 45 6 58 l0 22 -401 0 c-377 0 -400 1 -395 18 2 9 8 61 12 115 3
53 10 100 15 102 4 3 181 -18 394 -46 225 -30 389 -48 394 -43 5 5 11 30 15
57 l6 47 -666 -2 -666 -3 -133 -408 c-73 -225 -136 -411 -139 -414 -3 -4 -8
-4 -10 -2 -2 2 -12 189 -23 414 l-18 410 -257 3 c-238 2 -257 1 -262 -15z"/>
<path d="M3686 3338 c-8 -35 -56 -367 -56 -384 0 -11 25 -14 140 -14 105 0
140 -3 140 -12 0 -7 -36 -271 -80 -587 -44 -316 -80 -583 -80 -593 0 -17 13
-18 195 -18 l194 0 6 33 c3 17 39 280 80 582 42 303 78 560 81 573 4 22 7 22
144 22 76 0 141 3 143 8 3 4 17 88 31 187 15 99 29 190 32 203 l4 22 -485 0
-485 0 -4 -22z"/>
<path d="M495 3105 c38 -13 807 -107 814 -99 5 5 12 30 16 57 l7 47 -423 -1
c-233 0 -419 -2 -414 -4z"/>
<path d="M440 2854 c8 -2 188 -26 400 -54 212 -28 395 -52 406 -55 19 -4 22 2
31 55 l10 60 -431 -1 c-237 -1 -424 -3 -416 -5z"/>
<path d="M3000 2853 c57 -9 815 -110 817 -109 1 1 6 27 11 59 l9 57 -431 -1
c-237 -1 -420 -4 -406 -6z"/>
<path d="M391 2606 c2 -2 177 -27 389 -55 212 -29 397 -54 412 -57 25 -5 27
-2 37 46 6 28 11 55 11 60 0 6 -164 10 -427 10 -234 0 -424 -2 -422 -4z"/>
<path d="M2950 2604 c45 -12 826 -111 831 -106 4 4 9 31 13 60 l7 52 -433 -1
c-238 -1 -426 -3 -418 -5z"/>
<path d="M335 2355 c27 -11 830 -114 836 -107 4 4 10 31 14 60 l7 52 -434 -1
c-238 0 -428 -2 -423 -4z"/>
<path d="M2911 2355 c7 -6 831 -116 836 -111 2 2 7 29 10 60 l6 56 -428 0
c-236 0 -426 -2 -424 -5z"/>
<path d="M340 2094 c18 -4 763 -104 777 -104 5 0 14 25 20 55 l10 55 -411 -1
c-226 -1 -404 -3 -396 -5z"/>
<path d="M2930 2093 c128 -22 775 -102 780 -96 4 5 10 29 14 56 l6 47 -413 -1
c-226 -1 -401 -4 -387 -6z"/>
<path d="M270 1843 c14 -2 201 -28 417 -56 l392 -53 6 41 c4 22 9 48 11 58 5
16 -19 17 -423 16 -235 -1 -417 -4 -403 -6z"/>
<path d="M3255 1791 l420 -57 6 26 c4 14 7 40 8 58 l1 32 -427 -1 -428 -1 420
-57z"/>
</g>
</svg>
